Results
version=1
nRows=17
nColumns=24
inDegrees=yes
endheader
time	pelvis_tilt	pelvis_list	pelvis_rotation	pelvis_tx	pelvis_ty	pelvis_tz	hip_flexion_r	hip_adduction_r	hip_rotation_r	knee_angle_r	ankle_angle_r	subtalar_angle_r	mtp_angle_r	hip_flexion_l	hip_adduction_l	hip_rotation_l	knee_angle_l	ankle_angle_l	subtalar_angle_l	mtp_angle_l	lumbar_extension	lumbar_bending	lumbar_rotation
      0.64800000	     -6.51421680	      4.89666565	      5.93559035	     -0.73449212	      0.96764108	      0.27235669	     34.53097279	     -4.80663751	     -5.53632099	     -5.76684343	      7.22877751	     -8.16893160	      0.19208386	    -13.65576710	      8.11621136	      2.84165689	     -5.01293771	      8.93410816	      3.53766589	      0.88055511	      3.15709427	     -4.44779253	     -3.33040076
      0.65216667	     -6.58919438	      4.83774613	      5.99949495	     -0.72836567	      0.96694331	      0.27254708	     34.54548864	     -4.72641138	     -5.44994509	     -6.12265718	      7.09547214	     -8.51939815	      2.18355865	    -13.75211523	      7.98839577	      2.79980059	     -5.33081296	      8.60066640	      3.55269096	      6.63516351	      3.29706555	     -4.38495650	     -3.31475598
      0.65633333	     -6.68858323	      4.76174886	      6.09093041	     -0.72219404	      0.96625873	      0.27269192	     34.57727936	     -4.64891686	     -5.40082921	     -6.50115539	      6.91888046	     -8.78284471	      2.20198355	    -13.81272911	      7.84284759	      2.84190464	     -5.68010216	      8.38354905	      3.60091818	      6.65670213	      3.47712949	     -4.29255986	     -3.41340607
      0.66050000	     -6.74302706	      4.67568416	      6.14564044	     -0.71596058	      0.96563281	      0.27286427	     34.58308409	     -4.54676226	     -5.39302709	     -6.94264603	      6.74070083	     -8.95282700	      2.20705633	    -13.91826617	      7.69103423	      2.82804880	     -6.03176258	      8.15081387	      3.59402388	      6.66851332	      3.59293882	     -4.19676660	     -3.41807199
      0.66466667	     -6.91763665	      4.57475811	      6.22610469	     -0.70969553	      0.96489988	      0.27303993	     34.65213257	     -4.43042790	     -5.19175356	     -7.26963038	      6.36157710	     -9.52605318	      2.24144649	    -13.86960660	      7.52983838	      2.85200955	     -6.43019832	      7.89375368	      3.66167224	      6.75192334	      3.89921537	     -4.06633426	     -3.44355710
      0.66883333	     -6.99817403	      4.46919083	      6.25841937	     -0.70341337	      0.96429284	      0.27330069	     34.63780079	     -4.27489867	     -4.95664886	     -7.63941145	      6.01526478	    -10.22654716	      2.31632028	    -13.89664748	      7.36099009	      2.77293636	     -6.86726185	      7.65112786	      3.69023715	      6.93784202	      4.05840216	     -3.94693278	     -3.43399019
      0.67300000	     -7.02589545	      4.31164058	      6.26678082	     -0.69699469	      0.96379111	      0.27358169	     34.54537753	     -4.05612420	     -4.76240959	     -7.97614257	      5.58096944	    -10.84105763	      2.85083429	    -13.99395696	      7.13102903	      2.64991395	     -7.26316759	      7.33342830	      3.79216472	      8.21854421	      4.17846254	     -3.73666091	     -3.38769527
      0.67716667	     -7.18940441	      4.20964440	      6.32288757	     -0.69062500	      0.96313648	      0.27373417	     34.66240952	     -3.94840112	     -4.72922387	     -8.46265516	      5.19827080	    -11.09545842	      2.87631153	    -13.92761354	      6.97909454	      2.68799929	     -7.70723250	      6.96061299	      3.75923649	      8.29905830	      4.46861357	     -3.61137453	     -3.36417102
      0.68133333	     -7.32741108	      4.08685903	      6.33030921	     -0.68424785	      0.96254707	      0.27401543	     34.71582633	     -3.76775772	     -4.48290119	     -8.86701116	      4.70278570	    -11.87273233	      2.96387052	    -13.84985773	      6.80786612	      2.61831873	     -8.21432398	      6.63833571	      3.72598370	      8.58584587	      4.72570086	     -3.46572902	     -3.30727830
      0.68550000	     -7.42342848	      3.91033034	      6.33074891	     -0.67775551	      0.96205590	      0.27429573	     34.72042284	     -3.54094539	     -4.35399299	     -9.27040152	      4.18062323	    -12.41642614	      4.08705407	    -13.81088377	      6.56804701	      2.48379792	     -8.71206753	      6.19580578	      3.78067464	     12.12004718	      4.94568875	     -3.23332516	     -3.25141541
      0.68966667	     -7.55469606	      3.77535927	      6.32184431	     -0.67129152	      0.96156842	      0.27456290	     34.78097031	     -3.35301464	     -4.19100515	     -9.71272608	      3.64287907	    -12.97576236	      4.10116104	    -13.73476274	      6.39033753	      2.45881676	     -9.20751297	      5.69890026	      3.68473647	     12.20585121	      5.20248152	     -3.06310516	     -3.15838716
      0.69383333	     -7.67098523	      3.61962496	      6.29204194	     -0.66480453	      0.96112647	      0.27486178	     34.83170365	     -3.13707495	     -4.04899935	    -10.16085021	      3.04062929	    -13.46871743	      4.11749199	    -13.63832702	      6.19092642	      2.37155295	     -9.76533613	      5.24655853	      3.64174416	     12.34169228	      5.44531374	     -2.86059240	     -3.06445586
      0.69800000	     -7.79629106	      3.44457471	      6.24399188	     -0.65827410	      0.96072526	      0.27518993	     34.89750252	     -2.89234774	     -3.89490165	    -10.63039575	      2.49131978	    -14.07607670	      4.14683871	    -13.52715638	      5.97441385	      2.28025224	    -10.32043571	      4.71362886	      3.62076014	     12.59548112	      5.71315931	     -2.62244429	     -2.95056605
      0.70216667	     -7.90637209	      3.27569310	      6.19234230	     -0.65175752	      0.96039309	      0.27552096	     34.94807601	     -2.65820178	     -3.77463082	    -11.09380253	      1.89642266	    -14.45624704	      4.16745887	    -13.38890201	      5.76503577	      2.18176037	    -10.95211941	      4.14118480	      3.53474986	     12.82513010	      5.95481947	     -2.40024873	     -2.83882820
      0.70633333	     -8.03502149	      3.09582308	      6.11907660	     -0.64522872	      0.96008205	      0.27588686	     35.03516709	     -2.40298820	     -3.63583331	    -11.59830242	      1.34781125	    -14.96315213	      4.19301139	    -13.21440873	      5.55047832	      2.07487484	    -11.60040761	      3.54589991	      3.46561828	     13.15583989	      6.22659497	     -2.15577467	     -2.70009578
      0.71050000	     -8.12467561	      2.87836131	      6.02669277	     -0.63864321	      0.95987349	      0.27629007	     35.08606906	     -2.10472653	     -3.54069028	    -12.12056674	      0.87314412	    -15.41233205	      4.61591670	    -13.05864057	      5.28646880	      1.89529894	    -12.25979338	      2.84336195	      3.42722942	     17.82010163	      6.45412249	     -1.85300575	     -2.61904236
      0.71466667	     -8.20752684	      2.70050733	      5.92082135	     -0.63208869	      0.95971742	      0.27666867	     35.16060198	     -1.85319510	     -3.49858724	    -12.70668028	      0.41868844	    -15.56270248	      4.61017361	    -12.90531178	      5.08167540	      1.82950857	    -12.93767482	      2.10835498	      3.28606141	     17.84346920	      6.66200116	     -1.59835474	     -2.49220487
